<svg width="40" height="40" viewBox="0 0 40 40" fill="none" xmlns="http://www.w3.org/2000/svg">
<path d="M20 9H10C8.89543 9 8 9.89543 8 11V28.5C8 29.6046 8.89543 30.5 10 30.5H28.5C29.6046 30.5 30.5 29.6046 30.5 28.5V19.5" stroke="#E9ECEF" stroke-width="2" stroke-linecap="round"/>
<path d="M14.4639 22.0213L15.2596 18.5539C15.3437 18.1878 15.5291 17.8527 15.7947 17.5871L27.0902 6.29169L32.5902 11.7917L21.2947 23.0871C21.0291 23.3527 20.694 23.5382 20.3279 23.6222L16.8606 24.418C15.4221 24.7481 14.1337 23.4598 14.4639 22.0213Z" fill="#E9ECEF"/>
<path d="M28.0071 5.375C28.7665 4.61562 29.9977 4.61562 30.7571 5.375L33.5071 8.12504C34.2665 8.88442 34.2665 10.1156 33.5071 10.875L28.0071 5.375Z" fill="#E9ECEF"/>
</svg>
