<svg width="40" height="40" viewBox="0 0 40 40" fill="none" xmlns="http://www.w3.org/2000/svg">
<path d="M5 18.5168C5 12.7178 9.70101 8 15.5 8H24.5C30.299 8 35 12.7178 35 18.5168C35 24.2973 30.314 29 24.5335 29C24.2002 29 23.889 29.1666 23.7041 29.4439L20.8321 33.7519C20.4362 34.3457 19.5638 34.3457 19.1679 33.7519L16.2959 29.4439C16.111 29.1666 15.7998 29 15.4665 29C9.68602 29 5 24.2973 5 18.5168Z" fill="#E9ECEF"/>
<rect x="13" y="17" width="3" height="3" rx="1.5" fill="#242429"/>
<rect x="18.5" y="17" width="3" height="3" rx="1.5" fill="#242429"/>
<rect x="24" y="17" width="3" height="3" rx="1.5" fill="#242429"/>
</svg>
