<svg width="40" height="40" viewBox="0 0 40 40" fill="none" xmlns="http://www.w3.org/2000/svg">
<path d="M20.5 8.00098C20.5 8.00152 20.5004 8.00196 20.501 8.00196C23.5656 8.03039 28.4479 8.56155 29 18.5C29.2145 22.3614 29.9923 23.5389 31.0263 25.0264C31.47 25.6647 31.0111 26.5 30.2338 26.5H10.2662C9.48889 26.5 9.03004 25.6647 9.47369 25.0264C10.5077 23.5389 11.2855 22.3614 11.5 18.5C12.0521 8.56155 16.9344 8.03039 19.999 8.00196C19.9996 8.00196 20 8.00152 20 8.00098C20 8.00044 20.0004 8 20.001 8C20.0823 8.00001 20.1653 8.00077 20.25 8.00098C20.3347 8.00077 20.4177 8.00001 20.499 8C20.4996 8 20.5 8.00044 20.5 8.00098Z" fill="#E9ECEF"/>
<path d="M24.25 27.5H16.25C16.25 29.7091 18.0409 31.5 20.25 31.5C22.4591 31.5 24.25 29.7091 24.25 27.5Z" fill="#E9ECEF"/>
</svg>
