<svg width="30" height="30" viewBox="0 0 30 30" fill="none" xmlns="http://www.w3.org/2000/svg">
<path d="M4.875 21.4219V12.8385C4.875 12.281 5.46173 11.9184 5.96041 12.1677L13.6584 16.0167C14.5029 16.439 15.4971 16.439 16.3416 16.0167L24.0396 12.1677C24.5383 11.9184 25.125 12.281 25.125 12.8385V21.4219C25.125 21.8361 24.7892 22.1719 24.375 22.1719H5.625C5.21079 22.1719 4.875 21.8361 4.875 21.4219Z" fill="#E9ECEF"/>
<path d="M4.875 9V10.3177C4.875 10.6018 5.0355 10.8615 5.28959 10.9885L13.6584 15.1729C14.5029 15.5952 15.4971 15.5952 16.3416 15.1729L24.7104 10.9885C24.9645 10.8615 25.125 10.6018 25.125 10.3177V9C25.125 8.58579 24.7892 8.25 24.375 8.25H5.625C5.21079 8.25 4.875 8.58579 4.875 9Z" fill="#E9ECEF"/>
</svg>
